<svg width="1440" height="164" viewBox="0 0 1440 164" fill="none" xmlns="http://www.w3.org/2000/svg">
<g clip-path="url(#clip0_2_8)">
<path d="M0 33L34.4 31.2C68.8 29.3 137.6 25.7 206.08 20.7C274.72 15.7 342.88 9.30002 411.52 11.2C480 13 548.8 23 617.28 31.2C685.92 39.3 754.08 45.7 822.72 46.5C891.2 47.3 960 42.7 1028.48 42.3C1097.12 42 1165.28 46 1233.92 47.8C1302.4 49.7 1371.2 49.3 1405.6 49.2L1440 49V165H1405.6C1371.2 165 1302.4 165 1233.92 165C1165.28 165 1097.12 165 1028.48 165C960 165 891.2 165 822.72 165C754.08 165 685.92 165 617.28 165C548.8 165 480 165 411.52 165C342.88 165 274.72 165 206.08 165C137.6 165 68.8 165 34.4 165H0V33Z" fill="#AA5AA3"/>
<path d="M0 48L34.4 53.8C68.8 59.7 137.6 71.3 206.08 70.3C274.72 69.3 342.88 55.7 411.52 54.3C480 53 548.8 64 617.28 69.2C685.92 74.3 754.08 73.7 822.72 72.7C891.2 71.7 960 70.3 1028.48 70.3C1097.12 70.3 1165.28 71.7 1233.92 71.3C1302.4 71 1371.2 69 1405.6 68L1440 67V165H1405.6C1371.2 165 1302.4 165 1233.92 165C1165.28 165 1097.12 165 1028.48 165C960 165 891.2 165 822.72 165C754.08 165 685.92 165 617.28 165C548.8 165 480 165 411.52 165C342.88 165 274.72 165 206.08 165C137.6 165 68.8 165 34.4 165H0V48Z" fill="#D34687"/>
<path d="M0 109L34.4 108.2C68.8 107.3 137.6 105.7 206.08 102.8C274.72 100 342.88 96 411.52 94.3C480 92.7 548.8 93.3 617.28 92.3C685.92 91.3 754.08 88.7 822.72 87.7C891.2 86.7 960 87.3 1028.48 88.8C1097.12 90.3 1165.28 92.7 1233.92 96.8C1302.4 101 1371.2 107 1405.6 110L1440 113V165H1405.6C1371.2 165 1302.4 165 1233.92 165C1165.28 165 1097.12 165 1028.48 165C960 165 891.2 165 822.72 165C754.08 165 685.92 165 617.28 165C548.8 165 480 165 411.52 165C342.88 165 274.72 165 206.08 165C137.6 165 68.8 165 34.4 165H0V109Z" fill="#EB3B5A"/>
</g>
<defs>
<clipPath id="clip0_2_8">
<rect width="1440" height="164" fill="white"/>
</clipPath>
</defs>
</svg>
